# xmcd
#
# Track frame offsets: 
#        150
#        13372
#        24400
#        40267
#        49702
#        67470
#        83835
#        98317
#        111617
#        126442
#
# Disc length: 1810 seconds
#
# Revision: 0
# Processed by: cddbd v1.5.2PL0 Copyright (c) Steve Scherf et al.
# Submitted via: ExactAudioCopy v1.0b3
#
DISCID=8a07100a
DTITLE=The Lockes - Headin' West
DYEAR=1992
DGENRE=Gospel
TTITLE0=In Their Shoes
TTITLE1=Man of His Word
TTITLE2=Talk to Me
TTITLE3=Sooner or Later
TTITLE4=Don't Let the Tears Dry
TTITLE5=Cowboys and Indians
TTITLE6=Over the Border
TTITLE7=It's No Secret
TTITLE8=Finer Things
TTITLE9=It's About Time
EXTD=
EXTT0=
EXTT1=
EXTT2=
EXTT3=
EXTT4=
EXTT5=
EXTT6=
EXTT7=
EXTT8=
EXTT9=
PLAYORDER=
